<svg name="Ica" xmlns="http://www.w3.org/2000/svg" version="1.0" width="960.000000pt" height="480.000000pt" viewBox="0 0 960.000000 480.000000" preserveAspectRatio="xMidYMid meet" style="&#10;    /* fill: #e3000b; */&#10;">
<g transform="translate(0.000000,480.000000) scale(0.100000,-0.100000)" fill="#000000" stroke="none">
<path d="M6432 3978 c-257 -453 -638 -1121 -846 -1485 -391 -686 -461 -796 -597 -932 -338 -338 -806 -460 -1269 -331 -93 26 -259 104 -351 166 -256 170 -449 457 -515 764 -25 117 -25 353 0 470 104 483 477 849 978 956 118 26 371 25 493 0 112 -23 237 -67 336 -117 l77 -38 286 504 c157 277 286 506 286 509 0 8 -185 100 -282 140 -181 74 -387 130 -598 163 -142 22 -527 25 -665 5 -587 -84 -1080 -330 -1470 -733 -346 -357 -560 -786 -642 -1284 -27 -167 -25 -545 5 -715 101 -582 396 -1086 855 -1459 239 -194 563 -364 858 -450 1019 -296 2113 72 2718 914 119 165 177 261 510 844 168 294 311 533 316 532 8 -2 555 -956 555 -968 0 -1 -91 -3 -202 -3 l-203 0 -232 -409 c-128 -225 -233 -411 -233 -415 0 -3 303 -6 674 -6 l673 0 145 -252 146 -253 680 -3 680 -2 -411 722 c-227 398 -831 1458 -1342 2355 -512 898 -933 1633 -937 1633 -4 0 -218 -370 -476 -822z" style="&#10;    fill: #e3000b;&#10;"/>
<path d="M0 2380 l0 -2290 600 0 600 0 0 2290 0 2290 -600 0 -600 0 0 -2290z" style="&#10;    fill: #e3000b;&#10;"/>
</g>
</svg>